# xmcd
#
# Track frame offsets:
# 150
# 14819
# 31193
# 50076
# 66171
# 84417
# 100881
# 116992
# 133900
# 149292
# 163802
# 181661
# 202341
# 218973
# 236446
# 258482
# 278645
# 294707
# 313255
#
# Disc length: 4444 seconds
#
#
# Revision: 0
# Processed by: cddbd v1.5.2PL0 Copyright (c) Steve Scherf et al.
# Submitted via: FreeRIP 2.941 
#
DISCID=30115a13
DTITLE=Shania Twain - Up! Red Album (POP Version)
DYEAR=1900
DGENRE=Country
TTITLE0=Up!
TTITLE1=I´m Gonna Getcha Good!
TTITLE2=She´s Not Just A Pretty Face
TTITLE3=Juanita
TTITLE4=Forever And For Always
TTITLE5=Ain´t No Particular Way
TTITLE6=It Only Hurts When I´m Breathing
TTITLE7=Nah!
TTITLE8=(Wanna Get To Know You) That Good!
TTITLE9=Cést La Vie
TTITLE10=I´m Jealous
TTITLE11=Ka-Ching!
TTITLE12=Thank You Baby
TTITLE13=Waiter! Bring Me Water
TTITLE14=What A Way To Wanna Be!
TTITLE15=I Aínt Goin´Down
TTITLE16=I´m Not In The Mood (To Say No)!
TTITLE17=In My Car (I´ll Be The Driver)
TTITLE18=When You Kiss Me
EXTD=
EXTT0=
EXTT1=
EXTT2=
EXTT3=
EXTT4=
EXTT5=
EXTT6=
EXTT7=
EXTT8=
EXTT9=
EXTT10=
EXTT11=
EXTT12=
EXTT13=
EXTT14=
EXTT15=
EXTT16=
EXTT17=
EXTT18=
PLAYORDER=
